<svg xmlns="http://www.w3.org/2000/svg" xmlns:xlink="http://www.w3.org/1999/xlink" width="16" height="16" version="1.1" viewBox="0 0 16 16"><desc>Created with Sketch.</desc><g id="Page-1" fill="none" fill-rule="evenodd" stroke="none" stroke-width="1"><g id="icon-save" fill="#57626C" fill-rule="nonzero" transform="translate(-30.000000, -30.000000)"><g id="Shape"><path d="M13,0 L2,0 C0.9,0 0,0.9 0,2 L0,14 C0,15.1 0.9,16 2,16 L14,16 C15.1,16 16,15.1 16,14 L16,3 L13,0 Z M14,14 L2,14 L2,2 L13,2 L14,3 L14,14 Z M3,8 L11,8 L11,13 L3,13 L3,8 Z M7,3 L4,3 L4,6 L11,6 L11,3 L7,3 Z M10,5 L7,5 L7,4 L10,4 L10,5 Z M12,12 L13,12 L13,13 L12,13 L12,12 Z" transform="translate(30.000000, 30.000000)"/></g></g></g></svg>