<svg xmlns="http://www.w3.org/2000/svg" xmlns:xlink="http://www.w3.org/1999/xlink" width="13" height="12" version="1.1" viewBox="0 0 13 12"><desc>Created with Sketch.</desc><g id="Page-1" fill="none" fill-rule="evenodd" stroke="none" stroke-width="1"><g id="icon-external" fill="#57626C" fill-rule="nonzero" transform="translate(-32.000000, -32.000000)"><g id="Group"><g transform="translate(32.000000, 32.000000)"><path id="Shape" d="M6,2 L6,0 L0,0 L0,12 L6,12 L6,10 L2,10 L2,2 L6,2 Z M12.7,5.2 L9.5,2.1 C9.3,1.9 9,1.8 8.8,1.8 C8.6,1.8 8.2,1.9 7.9,2.1 C7.6,2.3 7.6,2.6 7.6,3 C7.6,3.3 7.7,3.6 7.9,3.9 L9.1,5 L4,5 L4,7 L9.2,7 L7.9,8.3 C7.6,8.5 7.6,8.8 7.6,9.1 C7.6,9.4 7.7,9.7 7.9,10 C8.1,10.3 8.4,10.3 8.7,10.3 C9,10.3 9.3,10.2 9.5,10 L12.6,6.9 C12.9,6.6 13,6.4 13,6 C13,5.8 12.9,5.4 12.7,5.2 L12.7,5.2 Z"/></g></g></g></g></svg>