<svg xmlns="http://www.w3.org/2000/svg" xmlns:xlink="http://www.w3.org/1999/xlink" width="8" height="5" version="1.1" viewBox="0 0 8 5"><desc>Created with Sketch.</desc><g id="Page-1" fill="none" fill-rule="evenodd" stroke="none" stroke-width="1"><g id="icon-caret-2" fill="#57626C" transform="translate(-34.000000, -36.000000)"><g id="Group"><g transform="translate(34.000000, 36.000000)"><path id="Shape" d="M7.7,1.8 L4.8,4.7 C4.6,4.9 4.3,5 4,5 C3.7,5 3.4,4.9 3.2,4.7 L0.3,1.8 C0.1,1.6 0,1.3 0,1.1 C0,0.8 0.1,0.6 0.3,0.3 C0.5,0.1 0.8,0 1.1,0 C1.4,0 1.7,0.1 1.9,0.3 L4,2.4 L6.1,0.3 C6.4,0.1 6.6,0 6.9,0 C7.2,0 7.5,0.1 7.7,0.3 C7.9,0.5 8,0.8 8,1.1 C8,1.4 7.9,1.6 7.7,1.8 L7.7,1.8 Z"/></g></g></g></g></svg>