<svg xmlns="http://www.w3.org/2000/svg" xmlns:xlink="http://www.w3.org/1999/xlink" width="13" height="9" version="1.1" viewBox="0 0 13 9"><desc>Created with Sketch.</desc><g id="Page-1" fill="none" fill-rule="evenodd" stroke="none" stroke-width="1"><g id="icon-hide" fill="#57626C" fill-rule="nonzero" transform="translate(-32.000000, -34.000000)"><g id="Group"><g transform="translate(32.000000, 34.000000)"><path id="Shape" d="M6.5,0 C4.1,0 1.8,1.7 0,4.5 C1.8,7.3 4.1,9 6.5,9 C8.9,9 11.2,7.3 13,4.5 C11.2,1.7 8.9,0 6.5,0 Z M6.5,7.5 C4.7,7.5 3.3,6.2 3.3,4.5 C3.3,2.8 4.8,1.5 6.5,1.5 L6.9,1.5 C6.6,1.8 6.5,2.2 6.5,2.6 C6.5,3.6 7.4,4.5 8.5,4.5 C8.9,4.5 9.4,4.4 9.7,4.1 L9.7,4.5 C9.7,6.2 8.3,7.5 6.5,7.5 L6.5,7.5 Z"/></g></g></g></g></svg>