<svg xmlns="http://www.w3.org/2000/svg" xmlns:xlink="http://www.w3.org/1999/xlink" width="14" height="12" version="1.1" viewBox="0 0 14 12"><desc>Created with Sketch.</desc><g id="Page-1" fill="none" fill-rule="evenodd" stroke="none" stroke-width="1"><g id="icon-logout" fill="#57626C" transform="translate(-31.000000, -32.000000)"><g id="Group"><g transform="translate(31.000000, 32.000000)"><path id="Shape" d="M13,0 L7,0 C6.5,0 6,0.5 6,1 L6,2 L8,3 L8,2 L12,2 L12,12 L14,12 L14,1 C14,0.5 13.5,0 13,0 Z M5,3 C4.9,2.9 4.3,2.6 4.2,2.6 L4,3 L4,5 L1,5 C0.6,5 0,5.6 0,6 L0,7 C0,7.4 0.6,8 1,8 L4,8 L4,10 L4.2,10.4 C4.2,10.5 4.9,10 5,10 L9,7 L9,6 L5,3 Z"/></g></g></g></g></svg>