<svg xmlns="http://www.w3.org/2000/svg" xmlns:xlink="http://www.w3.org/1999/xlink" width="7" height="6" version="1.1" viewBox="0 0 7 6"><desc>Created with Sketch.</desc><g id="Page-1" fill="none" fill-rule="evenodd" stroke="none" stroke-width="1"><g id="icon-check" fill="#57626C" fill-rule="nonzero" transform="translate(-35.000000, -36.000000)"><g id="Group"><g transform="translate(35.000000, 36.000000)"><path id="Shape" d="M2.6,6 C2.9,6 3.1,5.9 3.3,5.7 L6.7,1.4 C6.8,1.2 6.9,1 6.9,0.9 C6.9,0.6 6.8,0.4 6.6,0.2 C6.4,0.1 6.2,3.88578059e-16 6,3.88578059e-16 C5.7,3.88578059e-16 5.5,0.1 5.3,0.3 L2.5,3.9 L1.5,2.9 C1.3,2.7 1.1,2.6 0.9,2.6 C0.7,2.6 0.5,2.7 0.3,2.9 C0.1,3 5.55111512e-17,3.2 5.55111512e-17,3.4 C5.55111512e-17,3.6 0.1,3.9 0.3,4 L2,5.7 C2.1,5.9 2.3,6 2.6,6 Z"/></g></g></g></g></svg>