<svg xmlns="http://www.w3.org/2000/svg" xmlns:xlink="http://www.w3.org/1999/xlink" width="13" height="9" version="1.1" viewBox="0 0 13 9"><desc>Created with Sketch.</desc><g id="Page-1" fill="none" fill-rule="evenodd" stroke="none" stroke-width="1"><g id="icon-back-button" fill="#57626C" fill-rule="nonzero" transform="translate(-32.000000, -33.000000)"><g id="icon-back-button-grey" transform="translate(32.000000, 33.000000)"><g id="Group"><path id="Shape" d="M4.6,0.6 L4.8,0.7 C5,0.8 5,1 5,1.2 L5,3 L11.7,3 C12.4,3 13,3.8 13,4.5 L13,8 L10,8 L10,6 L5,6 L5,7.8 C5,8 5,8.2 4.7,8.3 L4.5,8.4 C4.4,8.4 4.2,8.3 4.1,8.2 L0.2,5 C0.1,4.9 -2.77555756e-16,4.7 -2.77555756e-16,4.5 C-2.77555756e-16,4.3 0.1,4.1 0.2,4 L4.1,0.8 C4.2,0.7 4.4,0.6 4.6,0.6 L4.6,0.6 Z"/></g></g></g></g></svg>