<svg xmlns="http://www.w3.org/2000/svg" xmlns:xlink="http://www.w3.org/1999/xlink" width="16" height="12" version="1.1" viewBox="0 0 16 12"><desc>Created with Sketch.</desc><g id="Page-1" fill="none" fill-rule="evenodd" stroke="none" stroke-width="1"><g id="icon-email" fill="#57626C" fill-rule="nonzero" transform="translate(-30.000000, -32.000000)"><g id="Group"><g transform="translate(30.000000, 32.000000)"><path id="Shape" d="M0,1.4 L0,1 C0,0.4 0.4,-1.11022302e-16 1,-1.11022302e-16 L15,-1.11022302e-16 C15.6,-1.11022302e-16 16,0.4 16,1 L16,1.4 L8,6.4 L0,1.4 L0,1.4 Z M8.3,7.4 C8.2,7.5 8.1,7.5 8,7.5 C7.9,7.5 7.8,7.5 7.7,7.4 L0,2.6 L0,11 C0,11.6 0.4,12 1,12 L15,12 C15.6,12 16,11.6 16,11 L16,2.6 L8.3,7.4 L8.3,7.4 Z"/></g></g></g></g></svg>