<svg xmlns="http://www.w3.org/2000/svg" xmlns:xlink="http://www.w3.org/1999/xlink" width="16" height="16" version="1.1" viewBox="0 0 16 16"><desc>Created with Sketch.</desc><g id="Page-1" fill="none" fill-rule="evenodd" stroke="none" stroke-width="1"><g id="icon-brush" fill="#57626C" transform="translate(-30.000000, -30.000000)"><g id="Group"><g transform="translate(30.000000, 30.000000)"><path id="Shape" d="M15.414,0.585 C14.634,-0.195 13.367,-0.195 12.586,0.585 L6.886,6.285 C8.206,6.755 9.244,7.795 9.713,9.115 L15.413,3.415 C16.195,2.633 16.195,1.367 15.413,0.585 L15.414,0.585 Z M7.998,10.665 C7.998,9.196 6.803,8 5.33,8 C3.858,8 2.664,9.194 2.664,10.666 L2.666,10.668 C2.664,12.64 1.592,14.362 0,15.283 L0.01,15.293 C0.79,15.743 1.698,16 2.666,16 C5.612,16 8,13.612 8,10.666 L7.998,10.666 L7.998,10.665 Z"/></g></g></g></g></svg>