<svg xmlns="http://www.w3.org/2000/svg" xmlns:xlink="http://www.w3.org/1999/xlink" width="12" height="12" version="1.1" viewBox="0 0 12 12"><desc>Created with Sketch.</desc><g id="Page-1" fill="none" fill-rule="evenodd" stroke="none" stroke-width="1"><g id="icon-beta" fill="#57626C" fill-rule="nonzero" transform="translate(-32.000000, -32.000000)"><g id="Group"><g transform="translate(32.000000, 32.000000)"><path id="Shape" d="M1.273,12 L10.727,12 C11.315,12 11.699,11.831 11.89,11.509 C12.082,11.172 12.023,10.78 11.713,10.317 L7.575,4.107 L7.575,0.995 L8.105,0.995 C8.238,0.995 8.356,0.939 8.459,0.841 C8.562,0.743 8.621,0.631 8.621,0.491 C8.621,0.365 8.562,0.252 8.459,0.154 C8.356,0.056 8.238,0 8.091,0 L3.909,0 C3.762,0 3.644,0.056 3.541,0.154 C3.438,0.252 3.379,0.364 3.379,0.491 C3.379,0.631 3.438,0.743 3.541,0.841 C3.644,0.939 3.762,0.995 3.909,0.995 L4.425,0.995 L4.425,4.107 L0.287,10.317 C-0.023,10.78 -0.082,11.172 0.11,11.509 C0.302,11.831 0.685,12 1.273,12 L1.273,12 Z M5.308,4.64 L5.469,4.401 L5.469,0.995 L6.53,0.995 L6.53,4.401 L6.691,4.64 L8.929,7.99 L3.069,7.99 L5.307,4.64 L5.308,4.64 Z"/></g></g></g></g></svg>