<svg xmlns="http://www.w3.org/2000/svg" xmlns:xlink="http://www.w3.org/1999/xlink" width="12" height="13" version="1.1" viewBox="0 0 12 13"><desc>Created with Sketch.</desc><g id="Page-1" fill="none" fill-rule="evenodd" stroke="none" stroke-width="1"><g id="icon-arrow-down" fill="#57626C" fill-rule="nonzero" transform="translate(-33.000000, -32.000000)"><g id="icon-arrow-down-grey" transform="translate(33.000000, 32.000000)"><g id="Group"><path id="Shape" d="M4.9,12.1 L0.8,7.8 C0.5,7.5 0.4,7.1 0.4,6.9 C0.4,6.6 0.5,6.1 0.8,5.7 C1.1,5.3 1.5,5.3 2,5.3 C2.4,5.3 2.8,5.4 3.2,5.7 L4.7,7.3 L4.7,0.5 L7.4,0.5 L7.4,7.4 L9.1,5.7 C9.4,5.3 9.8,5.3 10.2,5.3 C10.6,5.3 11,5.4 11.4,5.7 C11.8,6 11.8,6.4 11.8,6.8 C11.8,7.2 11.7,7.6 11.4,7.9 L7.3,12 C6.9,12.4 6.6,12.5 6.1,12.5 C5.7,12.5 5.1,12.3 4.9,12.1 L4.9,12.1 Z"/></g></g></g></g></svg>