<svg xmlns="http://www.w3.org/2000/svg" xmlns:xlink="http://www.w3.org/1999/xlink" width="18" height="24" version="1.1" viewBox="0 0 18 24"><desc>Created with Sketch.</desc><g id="Page-1" fill="none" fill-rule="evenodd" stroke="none" stroke-width="1"><g id="icon-secure" fill="#57626C" fill-rule="nonzero" transform="translate(-29.000000, -26.000000)"><g id="Group"><g transform="translate(29.000000, 26.000000)"><path id="Shape" d="M16.5,10 L15,10 L15,6 C15,2.7 12.3,0 9,0 C5.7,0 3,2.7 3,6 L3,10 L1.5,10 C0.7,10 -1.13686838e-13,10.7 -1.13686838e-13,11.5 L-1.13686838e-13,14 L18,14 L18,11.5 C18,10.7 17.3,10 16.5,10 Z M12,10 L6,10 L6,6 C6,4.3 7.3,3 9,3 C10.7,3 12,4.3 12,6 L12,10 Z M-1.13686838e-13,22.5 C-1.13686838e-13,23.3 0.7,24 1.5,24 L16.5,24 C17.3,24 18,23.3 18,22.5 L18,15 L-1.13686838e-13,15 L-1.13686838e-13,22.5 Z"/></g></g></g></g></svg>