<svg xmlns="http://www.w3.org/2000/svg" xmlns:xlink="http://www.w3.org/1999/xlink" width="13" height="13" version="1.1" viewBox="0 0 13 13"><desc>Created with Sketch.</desc><g id="Page-1" fill="none" fill-rule="evenodd" stroke="none" stroke-width="1"><g id="icon-copy" fill="#57626C" fill-rule="nonzero" transform="translate(-32.000000, -32.000000)"><g id="icon-copy-grey" transform="translate(32.000000, 32.000000)"><g id="Group"><path id="Shape" d="M7,5 L10,5 L10,6 L7,6 L7,5 Z M7,7 L10,7 L10,8 L7,8 L7,7 Z"/><path id="Shape" d="M0,2 L0,13 L9,13 L9,5 L6,2 L0,2 Z M7,11 L2,11 L2,4 L5,4 L5,6 L7,6 L7,11 Z M4,3 L6,3 L6,2 L9,2 L9,4 L11,4 L11,9 L9,9 L9,11 L13,11 L13,3 L10,0 L4,0 L4,3 Z"/><path id="Shape" d="M3,5 L4,5 L4,6 L3,6 L3,5 Z M3,7 L6,7 L6,8 L3,8 L3,7 Z M3,9 L6,9 L6,10 L3,10 L3,9 Z"/></g></g></g></g></svg>