<svg xmlns="http://www.w3.org/2000/svg" xmlns:xlink="http://www.w3.org/1999/xlink" width="800" height="250" version="1.1" viewBox="0 0 800 250"><title>instance_analyzer</title><desc>Created with Sketch.</desc><defs><linearGradient id="linearGradient-1" x1="0%" x2="100%" y1="0%" y2="100%"><stop offset="0%" stop-color="#0069CC"/><stop offset="100%" stop-color="#065BAC"/></linearGradient><filter id="filter-2" width="130.4%" height="118.5%" x="-15.2%" y="-6.2%" filterUnits="objectBoundingBox"><feOffset dx="0" dy="2" in="SourceAlpha" result="shadowOffsetOuter1"/><feGaussianBlur in="shadowOffsetOuter1" result="shadowBlurOuter1" stdDeviation="2"/><feColorMatrix in="shadowBlurOuter1" result="shadowMatrixOuter1" type="matrix" values="0 0 0 0 0 0 0 0 0 0 0 0 0 0 0 0 0 0 0.11 0"/><feMerge><feMergeNode in="shadowMatrixOuter1"/><feMergeNode in="SourceGraphic"/></feMerge></filter><filter id="filter-3" width="102%" height="122.2%" x="-1%" y="-5.6%" filterUnits="objectBoundingBox"><feOffset dx="0" dy="2" in="SourceAlpha" result="shadowOffsetOuter1"/><feGaussianBlur in="shadowOffsetOuter1" result="shadowBlurOuter1" stdDeviation=".5"/><feColorMatrix in="shadowBlurOuter1" result="shadowMatrixOuter1" type="matrix" values="0 0 0 0 0 0 0 0 0 0 0 0 0 0 0 0 0 0 0.11 0"/><feMerge><feMergeNode in="shadowMatrixOuter1"/><feMergeNode in="SourceGraphic"/></feMerge></filter></defs><g id="Approved" fill="none" fill-rule="evenodd" stroke="none" stroke-width="1"><g id="instance_analyzer"><g id="background"><g><rect id="Rectangle" width="800" height="280" x="0" y="0" fill="url(#linearGradient-1)"/><rect id="Rectangle-Copy" width="740" height="50" x="30" y="230"/></g></g><g id="stroke-background" transform="translate(5.000000, 41.000000)"><g id="Group-2-Copy" fill="#FFF" transform="translate(493.000000, 23.000000)"><rect id="Rectangle-Copy-12" width="5" height="3" x="8" y="0" opacity=".175" rx="1.5"/><rect id="Rectangle-Copy-15" width="24" height="3" x="17" y="0" rx="1.5"/><rect id="Rectangle-Copy-14" width="5" height="3" x="60" y="7" opacity=".175" rx="1.5"/><rect id="Rectangle-Copy-17" width="24" height="3" x="30" y="7" rx="1.5"/><rect id="Rectangle-Copy-21" width="24" height="3" x="11" y="14" opacity=".192" rx="1.5"/><rect id="Rectangle-Copy-20" width="24" height="3" x="0" y="7" rx="1.5"/></g><g id="Group-2-Copy-5" transform="translate(518.500000, 124.500000) scale(1, -1) translate(-518.500000, -124.500000) translate(480.000000, 116.000000)"><rect id="Rectangle-Copy-12" width="5" height="3" x="0" y="7" fill="#FFF" opacity=".175" rx="1.5"/><rect id="Rectangle-Copy-15" width="24" height="3" x="9" y="7" fill="#FFF" rx="1.5"/><rect id="Rectangle-Copy-14" width="5" height="3" x="52" y="14" fill="#FFF" opacity=".175" rx="1.5"/><rect id="Rectangle-Copy-17" width="24" height="3" x="22" y="14" fill="#FFF" rx="1.5"/><rect id="Rectangle-Copy-22" width="4" height="2" x="72.5" y="14.5" stroke="#FFF" rx="1"/><rect id="Rectangle-Copy-12" width="5" height="3" x="20" y="0" fill="#FFF" opacity=".175" rx="1.5"/><rect id="Rectangle-Copy-15" width="24" height="3" x="29" y="0" fill="#FFF" rx="1.5"/><rect id="Rectangle-Copy-14" width="5" height="3" x="72" y="7" fill="#FFF" opacity=".175" rx="1.5"/><rect id="Rectangle-Copy-17" width="24" height="3" x="42" y="7" fill="#FFF" rx="1.5"/></g><g id="Group-2-Copy-2" transform="translate(274.000000, 28.000000) scale(1, -1) translate(-274.000000, -28.000000) translate(240.000000, 23.000000)"><rect id="Rectangle-Copy-12" width="5" height="3" x="11" y="0" fill="#FFF" opacity=".175" rx="1.5"/><rect id="Rectangle-Copy-15" width="24" height="3" x="20" y="0" fill="#FFF" rx="1.5"/><rect id="Rectangle-Copy-14" width="5" height="3" x="63" y="7" fill="#FFF" opacity=".175" rx="1.5"/><rect id="Rectangle-Copy-17" width="24" height="3" x="33" y="7" fill="#FFF" rx="1.5"/><rect id="Rectangle-Copy-22" width="4" height="2" x=".5" y=".5" stroke="#FFF" rx="1"/><rect id="Rectangle-Copy-19" width="24" height="3" x="3" y="7" fill="#FFF" rx="1.5"/></g><g id="Group-2-Copy-3" transform="translate(249.000000, 120.000000)"><rect id="Rectangle-Copy-12" width="5" height="3" x="0" y="0" fill="#FFF" opacity=".175" rx="1.5"/><rect id="Rectangle-Copy-15" width="24" height="3" x="9" y="0" fill="#FFF" rx="1.5"/><rect id="Rectangle-Copy-22" width="4" height="2" x="42.5" y=".5" stroke="#FFF" rx="1"/><rect id="Rectangle-Copy-14" width="5" height="3" x="52" y="7" fill="#FFF" opacity=".175" rx="1.5"/><rect id="Rectangle-Copy-17" width="24" height="3" x="22" y="7" fill="#FFF" rx="1.5"/><rect id="Rectangle-Copy-18" width="24" height="3" x="2" y="14" fill="#FFF" rx="1.5"/></g><g id="dots" stroke="#FFF" opacity=".415"><g id="Group-5" transform="translate(90.000000, 10.000000)"><rect id="Rectangle-Copy-22" width="4" height="2" x=".5" y="30.5" rx="1"/><rect id="Rectangle-Copy-23" width="4" height="2" x="80.5" y=".5" rx="1"/></g><g id="Group-2" transform="translate(0.000000, 140.000000)"><rect id="Rectangle-Copy-29" width="4" height="2" x=".5" y="30.5" rx="1"/><rect id="Rectangle-Copy-28" width="4" height="2" x="80.5" y=".5" rx="1"/></g><g id="Group-2-Copy-4" transform="translate(639.000000, 130.000000)"><rect id="Rectangle-Copy-29" width="4" height="2" x=".5" y="30.5" rx="1"/><rect id="Rectangle-Copy-28" width="4" height="2" x="80.5" y=".5" rx="1"/></g><g id="Group-2-Copy-6" transform="translate(720.000000, 0.000000)"><rect id="Rectangle-Copy-29" width="4" height="2" x=".5" y="30.5" rx="1"/></g></g></g><g id="illustration" transform="translate(285.000000, 95.000000)"><g id="magnifying-glass" filter="url(#filter-2)" transform="translate(96.000000, 0.000000)"><ellipse id="Oval-2-Copy" cx="23" cy="22.653" stroke="#FFF" stroke-width="2" rx="21.657" ry="21.653"/><path id="Combined-Shape" fill="#FFF" d="M15.3140653,5.40518909 C17.6619013,4.357728 20.2629359,3.77542373 23,3.77542373 C33.4274658,3.77542373 41.880597,12.2269976 41.880597,22.6525424 C41.880597,25.3891022 41.2981854,27.9896576 40.2505313,30.3370611 M15.3140653,5.40518909 L15.3140653,5.40518909 M40.2505313,30.3370611 C40.5315361,28.9635023 40.6791045,27.5413541 40.6791045,26.0847458 C40.6791045,14.4270912 31.2269668,4.97669492 19.5671642,4.97669492 C18.1102875,4.97669492 16.6878772,5.12423608 15.3140653,5.40518909 L15.3140653,5.40518909 L15.3140653,5.40518909" opacity=".151"/><path id="Rectangle-2" stroke="#FFF" stroke-width="2" d="M25.4029851,44.6186441 L25.4029851,51.4830508 M20.5970149,51.4830508 L20.5970149,44.6186441 L20.5970149,44.6186441"/><rect id="Rectangle-2-Copy" width="10.358" height="28.203" x="17.821" y="51.797" stroke="#FFF" stroke-width="2" rx="5.179"/><path id="Line" stroke="#0C8EF7" stroke-linecap="round" stroke-width="2" d="M20.6914582,75 L25.1799927,75"/><path id="Line-Copy" stroke="#0C8EF7" stroke-linecap="round" stroke-width="2" d="M20.6914582,71 L25.1799927,71"/><path id="Line-Copy-2" stroke="#0C8EF7" stroke-linecap="round" stroke-width="2" d="M20.6914582,57 L25.1799927,57"/></g><g id="instances" stroke-width="2" filter="url(#filter-3)" opacity=".54" transform="translate(0.000000, 10.000000)"><path id="7" stroke="#FFF" d="M247.15625,10.4599942 L242.932419,18.8857143 L251.380081,18.8857143 L247.15625,10.4599942 Z"/><path id="6" stroke="#FFF" d="M208.128581,9.31055236 L204.667272,10.7405495 L203.23496,14.1894743 L204.667272,17.6383991 L208.128581,19.0683962 L211.58989,17.6383991 L213.022202,14.1894743 L211.58989,10.7405495 L208.128581,9.31055236 Z"/><path id="5" stroke="#FFF" d="M168.253581,9.64094954 L163.693211,14.1894743 L168.253581,18.737999 L172.813951,14.1894743 L168.253581,9.64094954 Z"/><path id="4" stroke="#80C11A" d="M118.9375,1.15395146 L108.625043,7.09238652 L108.625043,18.9647563 L118.9375,24.9031914 L129.249957,18.9647563 L129.249957,7.09238652 L118.9375,1.15395146 Z"/><path id="3" stroke="#FFF" d="M69.78125,10.4599942 L65.557419,18.8857143 L74.005081,18.8857143 L69.78125,10.4599942 Z"/><ellipse id="2" cx="37.813" cy="14.4" stroke="#FFF" rx="4.5" ry="4.486"/><rect id="1" width="9.688" height="9.657" x="1" y="9.229" stroke="#FFF"/></g></g></g></g></svg>