<svg xmlns="http://www.w3.org/2000/svg" xmlns:xlink="http://www.w3.org/1999/xlink" width="800" height="250" version="1.1" viewBox="0 0 800 250"><title>scenario_builder</title><desc>Created with Sketch.</desc><defs><linearGradient id="linearGradient-1" x1="0%" x2="100%" y1="0%" y2="100%"><stop offset="0%" stop-color="#0069CC"/><stop offset="100%" stop-color="#065BAC"/></linearGradient><filter id="filter-2" width="109.7%" height="166.7%" x="-4.8%" y="-25%" filterUnits="objectBoundingBox"><feOffset dx="0" dy="2" in="SourceAlpha" result="shadowOffsetOuter1"/><feGaussianBlur in="shadowOffsetOuter1" result="shadowBlurOuter1" stdDeviation="2"/><feColorMatrix in="shadowBlurOuter1" result="shadowMatrixOuter1" type="matrix" values="0 0 0 0 0 0 0 0 0 0 0 0 0 0 0 0 0 0 0.114555027 0"/><feMerge><feMergeNode in="shadowMatrixOuter1"/><feMergeNode in="SourceGraphic"/></feMerge></filter><circle id="path-3" cx="5" cy="28" r="2"/><filter id="filter-4" width="450%" height="450%" x="-175%" y="-125%" filterUnits="objectBoundingBox"><feOffset dx="0" dy="2" in="SourceAlpha" result="shadowOffsetOuter1"/><feGaussianBlur in="shadowOffsetOuter1" result="shadowBlurOuter1" stdDeviation="2"/><feColorMatrix in="shadowBlurOuter1" type="matrix" values="0 0 0 0 0 0 0 0 0 0 0 0 0 0 0 0 0 0 0.258718297 0"/></filter><circle id="path-5" cx="5" cy="2" r="2"/><filter id="filter-6" width="450%" height="450%" x="-175%" y="-125%" filterUnits="objectBoundingBox"><feOffset dx="0" dy="2" in="SourceAlpha" result="shadowOffsetOuter1"/><feGaussianBlur in="shadowOffsetOuter1" result="shadowBlurOuter1" stdDeviation="2"/><feColorMatrix in="shadowBlurOuter1" type="matrix" values="0 0 0 0 0 0 0 0 0 0 0 0 0 0 0 0 0 0 0.258718297 0"/></filter><circle id="path-7" cx="5" cy="28" r="2"/><filter id="filter-8" width="450%" height="450%" x="-175%" y="-125%" filterUnits="objectBoundingBox"><feOffset dx="0" dy="2" in="SourceAlpha" result="shadowOffsetOuter1"/><feGaussianBlur in="shadowOffsetOuter1" result="shadowBlurOuter1" stdDeviation="2"/><feColorMatrix in="shadowBlurOuter1" type="matrix" values="0 0 0 0 0 0 0 0 0 0 0 0 0 0 0 0 0 0 0.258718297 0"/></filter><linearGradient id="linearGradient-9" x1="50%" x2="50%" y1="0%" y2="100%"><stop offset="0%" stop-color="#FFF" stop-opacity=".625"/><stop offset="100%" stop-color="#FFF"/></linearGradient><circle id="path-10" cx="5" cy="2" r="2"/><filter id="filter-11" width="450%" height="450%" x="-175%" y="-125%" filterUnits="objectBoundingBox"><feOffset dx="0" dy="2" in="SourceAlpha" result="shadowOffsetOuter1"/><feGaussianBlur in="shadowOffsetOuter1" result="shadowBlurOuter1" stdDeviation="2"/><feColorMatrix in="shadowBlurOuter1" type="matrix" values="0 0 0 0 0 0 0 0 0 0 0 0 0 0 0 0 0 0 0.258718297 0"/></filter></defs><g id="Approved" fill="none" fill-rule="evenodd" stroke="none" stroke-width="1"><g id="scenario_builder"><g id="background"><g transform="translate(-0.500000, 0.000000)"><rect id="Rectangle" width="800" height="280" x="0" y="0" fill="url(#linearGradient-1)"/><rect id="Rectangle-Copy" width="740" height="50" x="30" y="230"/></g></g><g id="stroke-background" transform="translate(4.500000, 41.000000)"><g id="Group-2-Copy" fill="#FFF" transform="translate(493.000000, 23.000000)"><rect id="Rectangle-Copy-12" width="5" height="3" x="8" y="0" opacity=".175" rx="1.5"/><rect id="Rectangle-Copy-15" width="24" height="3" x="17" y="0" rx="1.5"/><rect id="Rectangle-Copy-14" width="5" height="3" x="60" y="7" opacity=".175" rx="1.5"/><rect id="Rectangle-Copy-17" width="24" height="3" x="30" y="7" rx="1.5"/><rect id="Rectangle-Copy-21" width="24" height="3" x="11" y="14" opacity=".192" rx="1.5"/><rect id="Rectangle-Copy-20" width="24" height="3" x="0" y="7" rx="1.5"/></g><g id="Group-2-Copy-5" transform="translate(518.500000, 124.500000) scale(1, -1) translate(-518.500000, -124.500000) translate(480.000000, 116.000000)"><rect id="Rectangle-Copy-12" width="5" height="3" x="0" y="7" fill="#FFF" opacity=".175" rx="1.5"/><rect id="Rectangle-Copy-15" width="24" height="3" x="9" y="7" fill="#FFF" rx="1.5"/><rect id="Rectangle-Copy-14" width="5" height="3" x="52" y="14" fill="#FFF" opacity=".175" rx="1.5"/><rect id="Rectangle-Copy-17" width="24" height="3" x="22" y="14" fill="#FFF" rx="1.5"/><rect id="Rectangle-Copy-22" width="4" height="2" x="72.5" y="14.5" stroke="#FFF" rx="1"/><rect id="Rectangle-Copy-12" width="5" height="3" x="20" y="0" fill="#FFF" opacity=".175" rx="1.5"/><rect id="Rectangle-Copy-15" width="24" height="3" x="29" y="0" fill="#FFF" rx="1.5"/><rect id="Rectangle-Copy-14" width="5" height="3" x="72" y="7" fill="#FFF" opacity=".175" rx="1.5"/><rect id="Rectangle-Copy-17" width="24" height="3" x="42" y="7" fill="#FFF" rx="1.5"/></g><g id="Group-2-Copy-2" transform="translate(274.000000, 28.000000) scale(1, -1) translate(-274.000000, -28.000000) translate(240.000000, 23.000000)"><rect id="Rectangle-Copy-12" width="5" height="3" x="11" y="0" fill="#FFF" opacity=".175" rx="1.5"/><rect id="Rectangle-Copy-15" width="24" height="3" x="20" y="0" fill="#FFF" rx="1.5"/><rect id="Rectangle-Copy-14" width="5" height="3" x="63" y="7" fill="#FFF" opacity=".175" rx="1.5"/><rect id="Rectangle-Copy-17" width="24" height="3" x="33" y="7" fill="#FFF" rx="1.5"/><rect id="Rectangle-Copy-22" width="4" height="2" x=".5" y=".5" stroke="#FFF" rx="1"/><rect id="Rectangle-Copy-19" width="24" height="3" x="3" y="7" fill="#FFF" rx="1.5"/></g><g id="Group-2-Copy-3" transform="translate(249.000000, 120.000000)"><rect id="Rectangle-Copy-12" width="5" height="3" x="0" y="0" fill="#FFF" opacity=".175" rx="1.5"/><rect id="Rectangle-Copy-15" width="24" height="3" x="9" y="0" fill="#FFF" rx="1.5"/><rect id="Rectangle-Copy-22" width="4" height="2" x="42.5" y=".5" stroke="#FFF" rx="1"/><rect id="Rectangle-Copy-14" width="5" height="3" x="52" y="7" fill="#FFF" opacity=".175" rx="1.5"/><rect id="Rectangle-Copy-17" width="24" height="3" x="22" y="7" fill="#FFF" rx="1.5"/><rect id="Rectangle-Copy-18" width="24" height="3" x="2" y="14" fill="#FFF" rx="1.5"/></g><g id="dots" stroke="#FFF" opacity=".415"><g id="Group-5" transform="translate(90.000000, 10.000000)"><rect id="Rectangle-Copy-22" width="4" height="2" x=".5" y="30.5" rx="1"/><rect id="Rectangle-Copy-23" width="4" height="2" x="80.5" y=".5" rx="1"/></g><g id="Group-2" transform="translate(0.000000, 140.000000)"><rect id="Rectangle-Copy-29" width="4" height="2" x=".5" y="30.5" rx="1"/><rect id="Rectangle-Copy-28" width="4" height="2" x="80.5" y=".5" rx="1"/></g><g id="Group-2-Copy-4" transform="translate(639.000000, 130.000000)"><rect id="Rectangle-Copy-29" width="4" height="2" x=".5" y="30.5" rx="1"/><rect id="Rectangle-Copy-28" width="4" height="2" x="80.5" y=".5" rx="1"/></g><g id="Group-2-Copy-6" transform="translate(720.000000, 0.000000)"><rect id="Rectangle-Copy-29" width="4" height="2" x=".5" y="30.5" rx="1"/></g></g></g><g id="sine" stroke-width="2" filter="url(#filter-2)" transform="translate(317.500000, 104.000000)"><g><path id="Path-3" stroke="#FFF" d="M0.667883832,11.6992188 C14.9276888,-3.71647135 28.913016,-3.71647135 42.6238654,11.6992188 C56.3347148,27.1149089 69.6506312,27.1149089 82.5716146,11.6992188"/><path id="Path-3-Copy" stroke="#0C8EF7" stroke-dasharray="2 4" stroke-linecap="round" d="M82.5,11.7617645 C96.759805,-3.65392558 110.745132,-3.65392558 124.455982,11.7617645 C138.166831,27.1774546 151.482747,27.1774546 164.403731,11.7617645"/></g></g><g id="connecting-ovals" transform="translate(334.500000, 76.000000)"><g id="1"><g id="Oval"><use fill="#000" fill-opacity="1" filter="url(#filter-4)" xlink:href="#path-3"/><use fill="#FFF" fill-rule="evenodd" xlink:href="#path-3"/></g><path id="Line" stroke="#FFF" stroke-linecap="square" d="M5,26.5 L5,9.45999908"/><g id="checked-circle"><circle id="Oval-2" cx="5" cy="4.5" r="4" stroke="#FFF"/><g id="checkbox_checked" stroke="#80C11A" stroke-linecap="round" transform="translate(3.000000, 3.000000)"><g id="plus-green"><g><path id="Line" d="M2,0 L2,3"/><g id="Group" transform="translate(2.000000, 1.500000) rotate(90.000000) translate(-2.000000, -1.500000) translate(1.000000, 0.000000)"><path id="Line-Copy" d="M1,0 L1,3"/></g></g></g></g></g></g><g id="2" transform="translate(40.000000, 49.000000)"><path id="Line-Copy" stroke="#FFF" stroke-linecap="square" d="M5,20.5 L5,3.46000671"/><g id="Oval-Copy"><use fill="#000" fill-opacity="1" filter="url(#filter-6)" xlink:href="#path-5"/><use fill="#FFF" fill-rule="evenodd" xlink:href="#path-5"/></g><g id="checked-circle" transform="translate(0.000000, 21.000000)"><circle id="Oval-2" cx="5" cy="4.5" r="4" stroke="#FFF"/><g id="checkbox_checked" stroke="#80C11A" stroke-linecap="round" transform="translate(2.000000, 2.000000)"><g id="plus-green"><g transform="translate(0.799988, 0.800003)"><path id="Line" d="M2,0 L2,3"/><g id="Group" transform="translate(2.000000, 1.500000) rotate(90.000000) translate(-2.000000, -1.500000) translate(1.000000, 0.000000)"><path id="Line-Copy" d="M1,0 L1,3"/></g></g></g></g></g></g><g id="3" transform="translate(82.000000, 0.000000)"><g id="Oval-Copy-2"><use fill="#000" fill-opacity="1" filter="url(#filter-8)" xlink:href="#path-7"/><use fill="#FFF" fill-rule="evenodd" xlink:href="#path-7"/></g><path id="Line-Copy-2" stroke="url(#linearGradient-9)" stroke-linecap="square" d="M5,26.5 L5,9.46433115"/><g id="checked-circle"><circle id="Oval-2" cx="5" cy="4.5" r="4" stroke="#FFF"/><g id="checkbox_checked" stroke="#80C11A" stroke-linecap="round" transform="translate(3.000000, 3.000000)"><g id="plus-green"><g><path id="Line" d="M2,0 L2,3"/><g id="Group" transform="translate(2.000000, 1.500000) rotate(90.000000) translate(-2.000000, -1.500000) translate(1.000000, 0.000000)"><path id="Line-Copy" d="M1,0 L1,3"/></g></g></g></g></g></g><g id="4" transform="translate(122.500000, 49.000000)"><path id="Line-Copy-3" stroke="url(#linearGradient-9)" stroke-linecap="square" d="M5,20.5 L5,3.46000671"/><g id="Oval-Copy-3"><use fill="#000" fill-opacity="1" filter="url(#filter-11)" xlink:href="#path-10"/><use fill="#FFF" fill-rule="evenodd" xlink:href="#path-10"/></g><g id="checked-circle" transform="translate(0.000000, 21.000000)"><circle id="Oval-2" cx="5" cy="4.5" r="4" stroke="#FFF"/><g id="checkbox_checked" stroke="#80C11A" stroke-linecap="round" transform="translate(3.000000, 2.000000)"><g id="plus-green"><g transform="translate(0.000000, 0.800003)"><path id="Line" d="M2,0 L2,3"/><g id="Group" transform="translate(2.000000, 1.500000) rotate(90.000000) translate(-2.000000, -1.500000) translate(1.000000, 0.000000)"><path id="Line-Copy" d="M1,0 L1,3"/></g></g></g></g></g></g></g></g></g></svg>