<svg xmlns="http://www.w3.org/2000/svg" xmlns:xlink="http://www.w3.org/1999/xlink" width="800" height="250" version="1.1" viewBox="0 0 800 250"><title>scheduled_reports</title><desc>Created with Sketch.</desc><defs><linearGradient id="linearGradient-1" x1="0%" x2="100%" y1="0%" y2="100%"><stop offset="0%" stop-color="#0069CC"/><stop offset="100%" stop-color="#065BAC"/></linearGradient><filter id="filter-2" width="125.5%" height="255.6%" x="-12.7%" y="-55.6%" filterUnits="objectBoundingBox"><feOffset dx="0" dy="2" in="SourceAlpha" result="shadowOffsetOuter1"/><feGaussianBlur in="shadowOffsetOuter1" result="shadowBlurOuter1" stdDeviation="2"/><feColorMatrix in="shadowBlurOuter1" result="shadowMatrixOuter1" type="matrix" values="0 0 0 0 0 0 0 0 0 0 0 0 0 0 0 0 0 0 0.19 0"/><feMerge><feMergeNode in="shadowMatrixOuter1"/><feMergeNode in="SourceGraphic"/></feMerge></filter><filter id="filter-3" width="115.1%" height="191.7%" x="-5.9%" y="-29.2%" filterUnits="objectBoundingBox"><feOffset dx="0" dy="2" in="SourceAlpha" result="shadowOffsetOuter1"/><feGaussianBlur in="shadowOffsetOuter1" result="shadowBlurOuter1" stdDeviation="2"/><feColorMatrix in="shadowBlurOuter1" result="shadowMatrixOuter1" type="matrix" values="0 0 0 0 0 0 0 0 0 0 0 0 0 0 0 0 0 0 0.11 0"/><feMerge><feMergeNode in="shadowMatrixOuter1"/><feMergeNode in="SourceGraphic"/></feMerge></filter><rect id="path-4" width="41" height="24" x="0" y="0" rx="4"/><filter id="filter-5" width="134.1%" height="158.3%" x="-17.1%" y="-20.8%" filterUnits="objectBoundingBox"><feOffset dx="0" dy="2" in="SourceAlpha" result="shadowOffsetOuter1"/><feMorphology in="SourceAlpha" operator="erode" radius="2" result="shadowInner"/><feOffset dx="0" dy="2" in="shadowInner" result="shadowInner"/><feComposite in="shadowOffsetOuter1" in2="shadowInner" operator="out" result="shadowOffsetOuter1"/><feGaussianBlur in="shadowOffsetOuter1" result="shadowBlurOuter1" stdDeviation="2"/><feColorMatrix in="shadowBlurOuter1" type="matrix" values="0 0 0 0 0 0 0 0 0 0 0 0 0 0 0 0 0 0 0.11 0"/></filter></defs><g id="Approved" fill="none" fill-rule="evenodd" stroke="none" stroke-width="1"><g id="scheduled_reports"><g id="background"><g><rect id="Rectangle" width="800" height="280" x="0" y="0" fill="url(#linearGradient-1)"/><rect id="Rectangle-Copy" width="740" height="50" x="30" y="230"/></g></g><g id="stroke-background" transform="translate(5.000000, 41.000000)"><g id="Group-2-Copy" fill="#FFF" transform="translate(493.000000, 23.000000)"><rect id="Rectangle-Copy-12" width="5" height="3" x="8" y="0" opacity=".175" rx="1.5"/><rect id="Rectangle-Copy-15" width="24" height="3" x="17" y="0" rx="1.5"/><rect id="Rectangle-Copy-14" width="5" height="3" x="60" y="7" opacity=".175" rx="1.5"/><rect id="Rectangle-Copy-17" width="24" height="3" x="30" y="7" rx="1.5"/><rect id="Rectangle-Copy-21" width="24" height="3" x="11" y="14" opacity=".192" rx="1.5"/><rect id="Rectangle-Copy-20" width="24" height="3" x="0" y="7" rx="1.5"/></g><g id="Group-2-Copy-5" transform="translate(518.500000, 124.500000) scale(1, -1) translate(-518.500000, -124.500000) translate(480.000000, 116.000000)"><rect id="Rectangle-Copy-12" width="5" height="3" x="0" y="7" fill="#FFF" opacity=".175" rx="1.5"/><rect id="Rectangle-Copy-15" width="24" height="3" x="9" y="7" fill="#FFF" rx="1.5"/><rect id="Rectangle-Copy-14" width="5" height="3" x="52" y="14" fill="#FFF" opacity=".175" rx="1.5"/><rect id="Rectangle-Copy-17" width="24" height="3" x="22" y="14" fill="#FFF" rx="1.5"/><rect id="Rectangle-Copy-22" width="4" height="2" x="72.5" y="14.5" stroke="#FFF" rx="1"/><rect id="Rectangle-Copy-12" width="5" height="3" x="20" y="0" fill="#FFF" opacity=".175" rx="1.5"/><rect id="Rectangle-Copy-15" width="24" height="3" x="29" y="0" fill="#FFF" rx="1.5"/><rect id="Rectangle-Copy-14" width="5" height="3" x="72" y="7" fill="#FFF" opacity=".175" rx="1.5"/><rect id="Rectangle-Copy-17" width="24" height="3" x="42" y="7" fill="#FFF" rx="1.5"/></g><g id="Group-2-Copy-2" transform="translate(274.000000, 28.000000) scale(1, -1) translate(-274.000000, -28.000000) translate(240.000000, 23.000000)"><rect id="Rectangle-Copy-12" width="5" height="3" x="11" y="0" fill="#FFF" opacity=".175" rx="1.5"/><rect id="Rectangle-Copy-15" width="24" height="3" x="20" y="0" fill="#FFF" rx="1.5"/><rect id="Rectangle-Copy-14" width="5" height="3" x="63" y="7" fill="#FFF" opacity=".175" rx="1.5"/><rect id="Rectangle-Copy-17" width="24" height="3" x="33" y="7" fill="#FFF" rx="1.5"/><rect id="Rectangle-Copy-22" width="4" height="2" x=".5" y=".5" stroke="#FFF" rx="1"/><rect id="Rectangle-Copy-19" width="24" height="3" x="3" y="7" fill="#FFF" rx="1.5"/></g><g id="Group-2-Copy-3" transform="translate(249.000000, 120.000000)"><rect id="Rectangle-Copy-12" width="5" height="3" x="0" y="0" fill="#FFF" opacity=".175" rx="1.5"/><rect id="Rectangle-Copy-15" width="24" height="3" x="9" y="0" fill="#FFF" rx="1.5"/><rect id="Rectangle-Copy-22" width="4" height="2" x="42.5" y=".5" stroke="#FFF" rx="1"/><rect id="Rectangle-Copy-14" width="5" height="3" x="52" y="7" fill="#FFF" opacity=".175" rx="1.5"/><rect id="Rectangle-Copy-17" width="24" height="3" x="22" y="7" fill="#FFF" rx="1.5"/><rect id="Rectangle-Copy-18" width="24" height="3" x="2" y="14" fill="#FFF" rx="1.5"/></g><g id="dots" stroke="#FFF" opacity=".415"><g id="Group-5" transform="translate(90.000000, 10.000000)"><rect id="Rectangle-Copy-22" width="4" height="2" x=".5" y="30.5" rx="1"/><rect id="Rectangle-Copy-23" width="4" height="2" x="80.5" y=".5" rx="1"/></g><g id="Group-2" transform="translate(0.000000, 140.000000)"><rect id="Rectangle-Copy-29" width="4" height="2" x=".5" y="30.5" rx="1"/><rect id="Rectangle-Copy-28" width="4" height="2" x="80.5" y=".5" rx="1"/></g><g id="Group-2-Copy-4" transform="translate(639.000000, 130.000000)"><rect id="Rectangle-Copy-29" width="4" height="2" x=".5" y="30.5" rx="1"/><rect id="Rectangle-Copy-28" width="4" height="2" x="80.5" y=".5" rx="1"/></g><g id="Group-2-Copy-6" transform="translate(720.000000, 0.000000)"><rect id="Rectangle-Copy-29" width="4" height="2" x=".5" y="30.5" rx="1"/></g></g></g><g id="envelope" filter="url(#filter-3)" transform="translate(321.000000, 110.000000)"><g id="strokes" transform="translate(0.000000, 2.000000)"><g id="strokes_2" transform="translate(27.000000, 16.500000) scale(-1, 1) translate(-27.000000, -16.500000) translate(0.000000, 12.000000)"><rect id="Rectangle" width="24" height="3" x="0" y="0" fill="#FFF" opacity=".298" rx="1.5"/><rect id="Rectangle-Copy-13" width="24" height="3" x="30" y="0" fill="#80C11A" rx="1.5"/><rect id="Rectangle-Copy-2" width="35" height="3" x="9" y="6" fill="#FFF" opacity=".79" rx="1.5"/><rect id="Rectangle-Copy-3" width="5" height="3" x="49" y="6" fill="#FFF" opacity=".407" rx="1.5"/></g><g id="strokes_1" transform="translate(14.000000, 0.000000)"><rect id="Rectangle" width="24" height="3" x="1" y="0" fill="#FFF" opacity=".298" rx="1.5"/><rect id="Rectangle-Copy-13" width="24" height="3" x="31" y="0" fill="#80C11A" rx="1.5"/><rect id="Rectangle-Copy-2" width="35" height="3" x="10" y="6" fill="#FFF" opacity=".695" rx="1.5"/><rect id="Rectangle-Copy-4" width="6" height="3" x="0" y="6" fill="#FFF" opacity=".41" rx="1.5"/></g></g><g transform="translate(78.000000, 0.000000)"><g id="Rectangle-6"><use fill="#000" fill-opacity="1" filter="url(#filter-5)" xlink:href="#path-4"/><rect width="39" height="22" x="1" y="1" stroke="#FFF" stroke-width="2" rx="4"/></g><polyline id="Path-2-Copy" fill="#0C8EF7" stroke="#FFF" stroke-linecap="round" stroke-linejoin="round" stroke-width="2" points="1.673 9.6 21.075 22.4 39.327 9.6" opacity="0" transform="translate(20.500000, 16.000000) scale(1, -1) translate(-20.500000, -16.000000)"/><polyline id="Path-2" stroke="#FFF" stroke-linejoin="round" stroke-width="2" points="1.673 1.6 21.075 14.4 39.327 1.6"/></g></g></g></g></svg>